<svg xmlns="http://www.w3.org/2000/svg" xmlns:xlink="http://www.w3.org/1999/xlink" version="1.1" x="0px" y="0px" viewBox="0 0 100 125" style="enable-background:new 0 0 100 100;" xml:space="preserve"><g><circle cx="38.7" cy="17.3" r="2.5"/><path d="M38.4,37.1c0,3.6,2.9,6.5,6.5,6.5c3.6,0,6.5-2.9,6.5-6.5c0-3.6-2.9-6.5-6.5-6.5C41.3,30.6,38.4,33.6,38.4,37.1z M44.8,35   c1.2,0,2.2,1,2.2,2.2s-1,2.2-2.2,2.2s-2.2-1-2.2-2.2C42.7,35.9,43.6,35,44.8,35z"/><path d="M28.3,35.7c3.2,0,5.8-2.6,5.8-5.8c0-3.2-2.6-5.8-5.8-5.8s-5.8,2.6-5.8,5.8C22.5,33.1,25.1,35.7,28.3,35.7z M28.3,28.5   c0.8,0,1.4,0.6,1.4,1.4c0,0.8-0.6,1.4-1.4,1.4s-1.4-0.6-1.4-1.4C26.8,29.1,27.5,28.5,28.3,28.5z"/><path d="M67,48.5H33c-7.8,0-14.1,6.3-14.1,14.1v8.5c0,7.8,6.3,14.1,14.1,14.1h34c7.8,0,14.1-6.3,14.1-14.1v-8.5   C81.1,54.8,74.8,48.5,67,48.5z M76.1,71.1c0,5-4.1,9.1-9.1,9.1H33c-5,0-9.1-4.1-9.1-9.1v-8.5c0-5,4.1-9.1,9.1-9.1h34   c5,0,9.1,4.1,9.1,9.1V71.1z"/><path d="M38.6,66.3l-1.5-0.4c-0.6-0.1-1-0.3-1.1-0.4c-0.3-0.2-0.4-0.4-0.4-0.7s0.1-0.6,0.4-0.8s0.7-0.3,1.1-0.3   c0.4,0,0.8,0.1,1.1,0.2c0.4,0.2,0.7,0.6,0.7,1.1h1.7c0-0.9-0.4-1.6-1-2.1c-0.6-0.5-1.4-0.7-2.4-0.7c-1.1,0-1.9,0.3-2.5,0.8   c-0.6,0.5-0.9,1.2-0.9,1.9c0,0.8,0.3,1.5,0.9,1.9c0.3,0.2,1,0.5,1.9,0.7l0.9,0.2c0.5,0.1,0.9,0.3,1.2,0.4c0.3,0.2,0.4,0.4,0.4,0.7   c0,0.5-0.3,0.8-0.8,1c-0.3,0.1-0.6,0.1-1.1,0.1c-0.7,0-1.2-0.2-1.5-0.5c-0.2-0.2-0.3-0.5-0.3-0.9h-1.7c0,0.9,0.3,1.6,1,2.1   s1.5,0.8,2.7,0.8c1.1,0,2-0.3,2.6-0.8s0.9-1.2,0.9-2s-0.3-1.4-0.8-1.8C39.8,66.6,39.3,66.4,38.6,66.3z"/><path d="M46,62.3c-1.2,0-2.2,0.3-2.8,1c-0.9,0.8-1.3,2-1.3,3.6c0,1.6,0.4,2.7,1.3,3.6c0.7,0.7,1.6,1,2.8,1s2.2-0.3,2.8-1   c0.9-0.8,1.3-2,1.3-3.6c0-1.6-0.4-2.8-1.3-3.6C48.1,62.6,47.2,62.3,46,62.3z M47.7,69.1c-0.4,0.5-1,0.8-1.7,0.8s-1.3-0.3-1.7-0.8   c-0.4-0.5-0.6-1.3-0.6-2.2c0-0.9,0.2-1.7,0.6-2.2c0.4-0.5,1-0.8,1.7-0.8s1.3,0.3,1.7,0.8c0.4,0.5,0.6,1.3,0.6,2.2   C48.3,67.8,48.1,68.6,47.7,69.1z"/><path d="M53.6,62.5l-3.1,8.6h1.9l0.6-1.8h3.2l0.6,1.8h2l-3.1-8.6H53.6z M53.5,67.9l1.1-3.4l1.1,3.4H53.5z"/><path d="M63.5,62.5h-3.7v8.6h1.8V68h1.8c0.9,0,1.7-0.2,2.2-0.6c0.5-0.4,0.8-1.1,0.8-2.2c0-0.9-0.3-1.6-0.8-2.1   C65,62.8,64.3,62.5,63.5,62.5z M64.1,66.3c-0.2,0.2-0.5,0.3-1,0.3h-1.6V64h1.6c0.4,0,0.7,0.1,1,0.3c0.3,0.2,0.3,0.5,0.3,1   S64.4,66.1,64.1,66.3z"/></g><text x="0" y="115" fill="#000000" font-size="5px" font-weight="bold" font-family="'Helvetica Neue', Helvetica, Arial-Unicode, Arial, Sans-serif">Created by Giuditta Valentina Gentile</text><text x="0" y="120" fill="#000000" font-size="5px" font-weight="bold" font-family="'Helvetica Neue', Helvetica, Arial-Unicode, Arial, Sans-serif">from the Noun Project</text></svg>